# xmcd CD database file
#
# Track frame offsets:
#	150
#	21895
#	37508
#	56535
#	70958
#	91290
#	110678
#	130068
#	149963
#	165975
#	181405
#	198365
#	215303
#	232908
#	250205
#	269708
#	289068
#	306463
#
# Disc length: 4309 seconds
#
# Revision: 0
# Processed by: cddbd v1.5PL3 Copyright (c) Steve Scherf et al.
# Submitted via: CDex 1.50
#
DISCID=0a10d312
DTITLE=岡本舞子 - 岡本舞子コレクション
DYEAR=2004
DGENRE=JPop
TTITLE0=見知らぬ国のトリッパー
TTITLE1=ラブリードリーム
TTITLE2=愛って林檎ですか
TTITLE3=桜吹雪クライマックス
TTITLE4=ファンレター
TTITLE5=エデンの園
TTITLE6=11月のソフィア
TTITLE7=冬が終わるまで
TTITLE8=憶病なヴィーナス
TTITLE9=夜のアリア-Starlight Dreaming-
TTITLE10=ナツオの恋人ナツコ
TTITLE11=ファッシネイション
TTITLE12=さよならペガサス
TTITLE13=素敵なフラッパー
TTITLE14=ハートの扉
TTITLE15=ロマンスしたい
TTITLE16=恋にエトセトラ
TTITLE17=ロマンチックがもの足りない
EXTD=YEAR: 2004/02/21
EXTT0=
EXTT1=
EXTT2=
EXTT3=
EXTT4=
EXTT5=
EXTT6=
EXTT7=
EXTT8=
EXTT9=
EXTT10=
EXTT11=
EXTT12=
EXTT13=
EXTT14=
EXTT15=
EXTT16=
EXTT17=
PLAYORDER=
